<svg width="402" height="402" viewBox="0 0 402 402" xmlns="http://www.w3.org/2000/svg" xmlns:sketch="http://www.bohemiancoding.com/sketch/ns"><title>empty-app</title><g sketch:type="MSShapeGroup" stroke="#000" fill="none"><path d="M201 26.994c95.781 0 173.438 77.774 173.438 173.701 0 95.927-77.656 173.701-173.438 173.701-95.781 0-173.438-77.774-173.438-173.701 0-95.927 77.656-173.701 173.438-173.701zm0 66.116c59.336 0 107.422 48.159 107.422 107.585 0 59.426-48.086 107.585-107.422 107.585s-107.422-48.159-107.422-107.585c0-59.426 48.086-107.585 107.422-107.585zM1.195.587l399.609 400.218M1.268 400.732l399.609-400.218"/><g><path d="M1.195 124.603h399.91M1.195 200.5h399.91M1.195 276.396h399.91M1.195 374.592h399.91M1.195 26.407h399.91"/></g><path d="M375.093.695v399.91M276.897.695v399.91M201 .695v399.91M125.104.695v399.91M26.908.695v399.91"/></g></svg>